PathFileType	4	(X/Y/Z)	C:/Users/opensim2020/Desktop/walking_exp_matlab/subject01_walking15_straight_01.trc																																																																																																																															
DataRate	CameraRate	NumFrames	NumMarkers	Units	OrigDataRate	OrigDataStartFrame	OrigNumFrames																																																																																																																											
100	100	8	43	mm	100	699	125																																																																																																																											
Frame#	Time	LFHD			RFHD			LBHD			RBHD			C7			T10			CLAV			STRN			RBAK			LSHO			LUPA			LELB			LFRM			LWRA			LWRB			LFIN			RSHO			RUPA			RELB			RFRM			RWRA			RWRB			RFIN			LASI			RASI			LPSI			RPSI			LTHI			LKNE			LTIB			LANK			LHEE			LTOE			RTHI			RKNE			RTIB			RANK			RHEE			RTOE			*39			*40			*41			*42		
		X1	Y1	Z1	X2	Y2	Z2	X3	Y3	Z3	X4	Y4	Z4	X5	Y5	Z5	X6	Y6	Z6	X7	Y7	Z7	X8	Y8	Z8	X9	Y9	Z9	X10	Y10	Z10	X11	Y11	Z11	X12	Y12	Z12	X13	Y13	Z13	X14	Y14	Z14	X15	Y15	Z15	X16	Y16	Z16	X17	Y17	Z17	X18	Y18	Z18	X19	Y19	Z19	X20	Y20	Z20	X21	Y21	Z21	X22	Y22	Z22	X23	Y23	Z23	X24	Y24	Z24	X25	Y25	Z25	X26	Y26	Z26	X27	Y27	Z27	X28	Y28	Z28	X29	Y29	Z29	X30	Y30	Z30	X31	Y31	Z31	X32	Y32	Z32	X33	Y33	Z33	X34	Y34	Z34	X35	Y35	Z35	X36	Y36	Z36	X37	Y37	Z37	X38	Y38	Z38	X39	Y39	Z39	X40	Y40	Z40	X41	Y41	Z41	X42	Y42	Z42	X43	Y43	Z43
																																																																																																																																		
32	0.31	-534.4729	1654.41272	1397.38904	-505.94553	1662.39441	1506.99768	-646.29346	1607.23132	1422.33386	-618.83655	1614.0332	1538.91992	-668.72821	1415.50525	1448.48499	-710.80609	1121.88391	1448.46472	-522.29651	1349.22546	1460.00879	-482.27728	1193.53027	1455.13208	-731.87927	1221.7793	1512.97412	-573.17383	1387.19629	1297.51929	-590.89142	1210.12756	1200.85217	-584.78558	1057.17859	1183.50574	-487.7858	986.84241	1177.25659	-363.83218	945.40765	1220.62622	-396.36536	907.09576	1188.47266	-315.68604	890.06134	1187.67712	-603.86865	1380.42542	1604.35254	-701.45538	1188.15356	1687.81763	-713.34479	1066.55273	1690.40747	-721.72443	949.37244	1722.84448	-677.83545	812.63989	1713.33472	-723.24506	828.50751	1746.50317	-712.11786	743.19739	1753.37317	-537.21332	910.98364	1344.68945	-526.01172	923.48138	1558.31763	-719.75592	931.05951	1404.82361	-710.85175	934.82996	1551.26184	-632.65369	579.04761	1294.71997	-677.19366	449.67786	1304.03955	-827.02979	332.4418	1295.7179	-985.44214	175.68469	1338.46228	-1024.42664	202.0529	1389.69922	-954.71045	33.07362	1372.99585	-494.14163	602.21136	1626.26807	-441.38611	453.91925	1598.08777	-470.10693	278.3663	1611.61621	-474.50198	72.92257	1566.29175	-522.87183	33.13849	1516.86365	-335.12952	37.87267	1568.50903	-521.17609	1695.26367	1485.90283	1973.17688	1023.47729	-3101.94165	2012.55127	1022.15936	-3140.69629	NaN	NaN	NaN
33	0.32	-521.68079	1656.01575	1400.09949	-492.77075	1663.84656	1509.62524	-633.43628	1608.66797	1425.38062	-605.50909	1615.31726	1541.90381	-655.95807	1416.47046	1451.62341	-696.8457	1122.96497	1450.45508	-509.03128	1351.21326	1462.32739	-468.26935	1195.69824	1456.95142	-717.37299	1222.53882	1516.12781	-560.92432	1389.08228	1300.21069	-579.18085	1212.15906	1203.28296	-575.35321	1059.49939	1186.31689	-480.15314	986.68481	1178.90271	-357.07254	941.13116	1221.09839	-390.91568	903.98499	1188.99402	-310.6806	884.05719	1187.70947	-589.77094	1382.05566	1606.96729	-685.41571	1189.16895	1690.95288	-696.18762	1067.28442	1693.29016	-702.87671	949.90448	1725.38647	-657.27527	813.89966	1715.24524	-702.64386	828.83417	1748.70276	-690.23383	743.53839	1755.1272	-522.82971	912.60992	1347.15552	-511.71762	924.97931	1560.60522	-705.21552	933.08313	1406.88928	-696.1698	937.3277	1553.28931	-609.85291	577.65625	1296.16589	-651.77368	447.7822	1304.40222	-803.97534	334.91229	1295.56873	-966.51556	183.43527	1337.98608	-1003.3833	212.48152	1388.96509	-946.97095	38.24411	1372.11353	-484.45065	602.19629	1627.40747	-434.03067	452.48883	1599.14734	-465.87003	277.91617	1611.60547	-473.88037	72.9357	1565.96594	-522.72144	33.67564	1517.0387	-334.47818	36.93195	1568.21057	-508.12848	1696.72583	1488.76221	1973.19385	1023.36639	-3101.90479	2012.53467	1022.00403	-3140.68457	NaN	NaN	NaN
34	0.33	-508.80365	1657.69617	1402.82056	-479.59732	1665.41174	1512.27625	-620.49402	1610.15112	1428.36841	-592.16803	1616.59412	1544.80933	-643.19684	1417.57178	1454.55884	-682.93195	1124.29443	1452.7605	-495.85175	1353.02307	1464.20898	-454.5257	1197.75403	1458.49268	-703.07361	1223.52722	1519.57629	-548.80237	1390.91541	1302.61194	-567.6236	1213.97205	1205.57227	-566.2793	1061.12317	1189.00452	-472.69525	986.02942	1180.78296	-350.66772	936.57477	1221.44006	-385.909	900.60175	1189.56934	-306.74017	878.04529	1187.42004	-575.53363	1383.57874	1609.36011	-669.27203	1190.20886	1694.11023	-678.99329	1067.98816	1696.13672	-683.88776	950.18719	1727.95117	-636.14099	814.90863	1717.05017	-681.51611	829.10254	1750.89832	-667.67188	743.93738	1756.86902	-507.4115	914.8595	1350.29248	-497.04019	926.57782	1563.19812	-691.03284	934.79413	1409.05627	-681.97559	939.64398	1555.51416	-587.03156	576.54852	1297.6698	-626.18896	446.21783	1305.03528	-780.1131	337.29654	1295.21411	-945.9137	191.59306	1338.18896	-981.33344	222.97757	1388.66162	-936.52167	43.94511	1370.83948	-476.62344	601.95532	1628.74109	-427.26721	451.82043	1600.40735	-461.80731	277.81406	1611.86938	-473.2793	72.99695	1565.77063	-522.42157	33.65431	1516.81519	-333.72983	36.30486	1567.75342	-495.17999	1698.00232	1491.46387	1973.09534	1023.4364	-3102.04883	2012.45581	1021.95764	-3140.83887	NaN	NaN	NaN
35	0.34	-495.91006	1659.56128	1405.45068	-466.36444	1666.99817	1514.7887	-607.42523	1611.77844	1431.17529	-578.80505	1617.95789	1547.51697	-630.37469	1419.08484	1457.30884	-668.78192	1125.66406	1455.4281	-482.58661	1354.94006	1465.9635	-440.89395	1199.71204	1459.83374	-689.0022	1224.80139	1523.1283	-536.78595	1392.71729	1304.62671	-556.14948	1215.71533	1207.67102	-557.14081	1062.74646	1192.0647	-465.6799	985.0401	1182.51929	-344.70996	931.59222	1221.64343	-381.38113	897.0285	1190.18481	-302.93347	871.28009	1187.42749	-561.25824	1385.11047	1611.61157	-653.05328	1191.21741	1697.27881	-661.73981	1068.56079	1698.94482	-664.53113	950.40497	1730.53748	-614.60718	816.05579	1718.74963	-659.99554	829.23962	1752.89612	-644.51581	744.45056	1758.52722	-494.24652	916.2583	1351.70984	-484.73352	927.26343	1564.32251	-677.23572	936.22144	1411.21399	-668.12744	941.54688	1557.60266	-564.53845	576.23376	1299.11975	-600.44495	445.20087	1305.86523	-755.67114	339.24301	1294.92395	-924.40869	199.9729	1339.38574	-958.8363	232.16708	1389.84534	-921.45325	50.39938	1369.15747	-469.72476	601.44525	1630.10791	-420.98508	451.44455	1601.927	-458.45401	277.76163	1612.29407	-472.95779	73.02095	1565.62415	-522.65533	34.51797	1517.34814	-333.41895	35.78352	1567.65344	-482.18063	1699.58044	1494.2251	1973.10913	1023.54901	-3101.89624	2012.52246	1022.03345	-3140.67285	NaN	NaN	NaN
36	0.35	-482.82971	1661.36975	1407.81799	-453.01743	1668.58923	1517.17969	-594.27325	1613.61951	1433.81982	-565.3728	1619.54297	1550.08069	-617.15796	1420.59631	1459.80017	-654.80249	1127.14429	1458.47241	-469.44992	1356.8634	1467.52283	-427.45053	1201.64331	1460.89795	-675.21545	1226.36365	1526.71997	-524.76312	1394.49268	1306.43054	-545.01245	1217.47961	1209.7179	-547.96893	1064.08313	1195.27319	-459.06955	983.72675	1184.27307	-339.1983	926.32343	1221.73474	-377.42163	893.04272	1190.93298	-299.92023	864.39917	1187.26172	-546.96686	1386.56604	1613.63025	-636.71692	1192.16321	1700.41492	-644.37048	1069.11597	1701.74805	-644.97906	950.64984	1733.1167	-592.66321	817.30426	1720.4353	-637.68555	829.56	1755.02283	-620.74963	744.95325	1760.19714	-480.58969	918.07928	1353.10315	-471.37933	928.18054	1566.17065	-663.6825	937.28577	1413.20386	-655.01587	943.39368	1559.57324	-542.64148	576.86414	1300.32849	-575.00665	445.01419	1306.62146	-730.67804	341.09488	1294.68982	-904.03406	207.58182	1341.2887	-937.05249	239.24429	1393.45337	-902.2616	57.2532	1366.42712	-462.90164	601.00861	1631.40955	-415.53488	450.50113	1603.31189	-456.08011	277.63251	1613.10156	-472.74335	73.00785	1565.49084	-522.4386	34.33665	1516.89343	-333.1225	35.36357	1567.9563	-468.96582	1701.26904	1496.80444	1973.078	1023.58466	-3102.01538	2012.54419	1022.14502	-3140.62793	NaN	NaN	NaN
37	0.36	-469.67267	1663.18762	1410.07983	-439.62497	1670.17114	1519.34912	-581.10913	1615.45984	1436.22766	-551.94873	1621.14771	1552.45313	-603.89423	1422.38196	1462.1842	-640.88855	1128.58118	1461.6272	-456.35568	1358.77026	1468.94299	-414.08185	1203.57678	1461.828	-661.67871	1228.07471	1530.14844	-512.64856	1396.2334	1308.10693	-534.30786	1219.08093	1211.72754	-538.78357	1065.27148	1198.47766	-452.75043	982.09546	1186.06689	-334.07849	920.7511	1221.81104	-374.05426	889.01978	1191.86438	-297.58624	857.41846	1186.99182	-532.86163	1388.01965	1615.51221	-620.29565	1193.08459	1703.46912	-627.00476	1069.68286	1704.58508	-625.10718	950.91516	1735.71521	-570.2373	818.75891	1722.08496	-615.30383	829.91254	1757.24414	-596.13983	746.10999	1761.93591	-467.89612	919.5506	1354.47571	-458.18906	928.99866	1567.97729	-650.49634	938.13031	1414.94885	-641.85449	944.69226	1561.04114	-521.1308	578.15668	1301.07288	-550.26001	445.71887	1307.33093	-705.3808	343.18243	1294.54028	-882.09833	214.63797	1344.06995	-915.02661	244.70721	1397.92969	-879.4212	63.69459	1363.53394	-457.55475	599.54669	1631.22107	-410.38083	449.7247	1605.11694	-454.2894	277.26245	1614.06091	-472.4436	73.13915	1565.48328	-522.13654	34.6788	1516.67908	-332.72635	35.01577	1568.05591	-455.45096	1702.979	1499.18542	1973.10291	1023.44659	-3101.8125	2012.5437	1022.08508	-3140.64307	NaN	NaN	NaN
38	0.37	-456.45352	1664.96912	1412.18896	-426.13058	1671.69836	1521.31506	-568.02539	1617.42712	1438.55811	-538.4621	1622.85474	1554.66284	-590.61072	1424.13086	1464.3811	-627.0437	1130.08704	1464.7373	-443.26709	1360.61829	1470.28125	-400.78101	1205.41064	1462.73157	-648.18378	1229.78491	1533.28662	-500.60239	1397.87463	1309.65796	-523.93048	1220.66321	1213.71252	-529.74097	1066.42212	1201.67908	-446.72516	980.36053	1187.96667	-329.51639	914.98352	1221.77332	-371.23346	884.58746	1192.79822	-296.36765	850.2641	1186.58203	-518.80786	1389.52368	1617.2793	-603.8172	1193.98291	1706.4613	-609.53601	1070.26953	1707.38232	-604.8717	951.36182	1738.30884	-547.42358	820.41504	1723.67395	-592.15985	830.56873	1759.37659	-571.81018	746.66583	1763.55225	-454.45898	921.09882	1355.75024	-445.28207	929.66608	1569.75598	-637.3916	938.70227	1416.32642	-629.12225	946.1001	1562.35229	-499.95618	579.95129	1301.36218	-525.15997	446.92197	1307.71167	-680.03839	345.58148	1295.12207	-858.3175	220.60193	1347.33252	-891.76416	248.85081	1402.31409	-853.52124	69.52283	1361.09912	-450.01141	599.54718	1632.44104	-405.52405	448.84052	1606.79883	-452.36432	276.89529	1615.07092	-472.02756	73.18005	1565.56396	-521.28375	34.61698	1516.53381	-332.47534	34.71435	1568.1969	-441.91058	1704.58862	1501.26868	1973.22168	1023.43817	-3101.92944	2012.54187	1022.09363	-3140.69263	NaN	NaN	NaN
39	0.38	-443.47394	1666.56372	1414.03418	-412.68863	1673.20496	1523.11572	-554.87421	1619.29688	1440.68774	-524.97565	1624.5498	1556.73267	-578.11932	1426.00891	1466.74707	-613.44116	1131.54529	1467.68494	-430.22086	1362.25574	1471.42957	-387.59335	1207.1106	1463.58496	-634.81042	1231.39954	1536.22107	-488.59433	1399.43896	1311.1925	-513.90533	1222.17517	1215.71204	-520.41864	1067.73743	1204.94751	-440.7684	978.65417	1189.92859	-325.42099	909.07849	1221.70032	-368.80069	880.04266	1193.86316	-295.49207	842.91437	1186.40649	-504.88715	1390.9917	1618.9552	-587.24548	1194.8407	1709.34729	-591.99072	1070.85461	1710.20813	-584.44403	951.84955	1740.85938	-524.30426	822.27942	1725.2522	-568.85327	831.24487	1761.59363	-546.29803	748.10461	1765.27917	-440.76413	922.70502	1356.98596	-432.51822	930.33118	1571.60254	-624.33508	939.31281	1417.42065	-616.52106	947.22852	1563.37524	-479.26074	582.1272	1301.31763	-500.75891	449.48837	1307.92139	-654.54968	348.23749	1296.78894	-833.31647	224.96208	1350.62012	-867.4588	251.44162	1406.52429	-825.75385	73.72499	1358.66077	-442.10242	599.56244	1633.65442	-400.85297	448.0065	1608.22498	-450.6795	276.39822	1615.8938	-471.66354	73.23255	1565.68481	-521.6839	35.80512	1516.65015	-332.14832	34.51319	1568.34766	-428.36743	1706.17578	1503.14551	1973.10938	1023.48499	-3101.98511	2012.42786	1022.07129	-3140.72705	NaN	NaN	NaN
